<svg width="314" height="73" viewBox="0 0 314 73" fill="none" xmlns="http://www.w3.org/2000/svg">
<path d="M26.6543 0L28.6143 8.33203H41.3457V16.625H29.8281V41.2979C29.8281 43.8207 30.3693 45.8997 31.627 47.3555C32.9088 48.8392 34.7825 49.5029 37.0527 49.5029H41.3457V57.7959H30.7783C26.6402 57.7958 24.0969 56.6928 22.5371 54.71C20.9318 52.669 20.1924 49.4849 20.1924 44.9248V0H26.6543Z" fill="#1C1D1F"/>
<path d="M49.04 8.29688C59.176 8.71658 67.2646 17.0656 67.2646 27.3047V53.5059C67.2646 64.0132 58.7466 72.5312 48.2393 72.5312H19.0254C8.51823 72.531 8.24618e-05 64.0131 0 53.5059V22.292C0.000189067 14.8894 5.74067 8.8276 13.0127 8.31445V16.6514C10.3256 17.1249 8.28342 19.4692 8.2832 22.292V53.5059C8.28329 59.4383 13.093 64.2478 19.0254 64.248H48.2393C54.1719 64.248 58.9814 59.4385 58.9814 53.5059V27.3047C58.9814 21.6414 54.5986 17.0045 49.04 16.5947V8.29688Z" fill="#1C1D1F"/>
<path d="M294.144 63.3776C282.583 63.3776 274.774 54.7646 274.774 42.3236C274.774 29.806 282.583 21.1165 294.144 21.1165C305.704 21.1165 313.475 29.806 313.475 42.3236C313.475 54.7646 305.704 63.3776 294.144 63.3776ZM294.144 56.4106C301.072 56.4106 305.321 50.8983 305.321 42.3236C305.321 33.634 301.034 28.0834 294.144 28.0834C287.253 28.0834 282.966 33.634 282.966 42.3236C282.966 50.9366 287.215 56.4106 294.144 56.4106Z" fill="#1C1D1F"/>
<path d="M261.89 62.4589V22.0352H269.968V62.4589H261.89ZM265.91 15.0682C263.039 15.0682 260.819 12.8863 260.819 10.1301C260.819 7.33565 263.039 5.15369 265.91 5.15369C268.781 5.15369 271.039 7.33565 271.039 10.1301C271.039 12.8863 268.781 15.0682 265.91 15.0682Z" fill="#1C1D1F"/>
<path d="M237.446 62.4589V22.0352H245.179V28.5811H245.332C246.825 24.1789 249.964 21.5375 255.093 21.5375C256.318 21.5375 257.39 21.6524 258.041 21.7289V29.2701C257.429 29.1553 255.668 28.8873 253.792 28.8873C249.237 28.8873 245.524 31.988 245.524 38.5721V62.4589H237.446Z" fill="#1C1D1F"/>
<path d="M210.552 63.2628C202.246 63.2628 195.929 57.7887 195.929 47.2234V22.0352H204.007V46.2282C204.007 52.6975 207.26 56.0278 212.887 56.0278C218.362 56.0278 222.611 52.8123 222.611 45.3094V22.0352H230.688V62.4589H222.764V56.3724C220.008 60.966 215.912 63.2628 210.552 63.2628Z" fill="#1C1D1F"/>
<path d="M162.489 39.1846V62.4589H154.412V22.0352H162.336V28.1217C165.092 23.5281 169.227 21.2313 174.548 21.2313C182.854 21.2313 189.171 26.7053 189.171 37.2706V62.4589H181.094V38.2659C181.094 31.7966 177.84 28.4662 172.251 28.4662C166.739 28.4662 162.489 31.6817 162.489 39.1846Z" fill="#1C1D1F"/>
<path d="M131.308 63.3776C119.326 63.3776 112.053 54.5349 112.053 42.3236C112.053 29.9974 119.862 21.1165 130.887 21.1165C142.333 21.1165 149.759 29.7677 149.759 42.247V44.429H120.015C120.283 51.7022 124.341 56.6403 131.423 56.6403C136.706 56.6403 140.227 53.999 141.376 50.171H149.147C147.654 57.9801 140.457 63.3776 131.308 63.3776ZM120.092 38.3042H141.873C141.223 31.8731 137.088 27.8537 130.964 27.8537C124.877 27.8537 120.781 31.8731 120.092 38.3042Z" fill="#1C1D1F"/>
<path d="M110.692 22.0352V28.6959H102.5V51.7788C102.5 54.7646 103.534 55.7982 106.749 55.7982H110.692V62.4589H105.601C98.0213 62.4589 94.3847 59.3199 94.3847 52.8123V28.6959H87.2646V22.0352H94.3847V11.0105H102.5V22.0352H110.692Z" fill="#1C1D1F"/>
</svg>
